<?xml version="1.0" encoding="UTF-8" standalone="no"?>
<svg
   width="166.4"
   height="62.242"
   viewBox="0 0 166.4 62.242"
   version="1.1"
   id="svg5"
   sodipodi:docname="logo-resized.svg"
   inkscape:version="1.1 (c68e22c387, 2021-05-23)"
   xmlns:inkscape="http://www.inkscape.org/namespaces/inkscape"
   xmlns:sodipodi="http://sodipodi.sourceforge.net/DTD/sodipodi-0.dtd"
   xmlns="http://www.w3.org/2000/svg"
   xmlns:svg="http://www.w3.org/2000/svg">
  <defs
     id="defs9" />
  <sodipodi:namedview
     id="namedview7"
     pagecolor="#ffffff"
     bordercolor="#666666"
     borderopacity="1.0"
     inkscape:pageshadow="2"
     inkscape:pageopacity="0.0"
     inkscape:pagecheckerboard="0"
     showgrid="false"
     inkscape:zoom="8.7199522"
     inkscape:cx="83.199997"
     inkscape:cy="31.078152"
     inkscape:window-width="1920"
     inkscape:window-height="986"
     inkscape:window-x="2869"
     inkscape:window-y="-11"
     inkscape:window-maximized="1"
     inkscape:current-layer="svg5" />
  <g
     id="Grupo_29"
     data-name="Grupo 29"
     transform="matrix(0.49138548,0,0,0.5172218,-5.3524008,8.6038048)">
    <path
       id="Caminho_993"
       data-name="Caminho 993"
       d="M 3.727,-4.1 H 1.974 v 3.019 H 0.984 V -8.546 H 3.455 A 2.925,2.925 0 0 1 5.395,-7.972 2.066,2.066 0 0 1 6.075,-6.3 2.009,2.009 0 0 1 5.7,-5.086 2.249,2.249 0 0 1 4.652,-4.312 L 6.4,-1.143 v 0.062 H 5.347 Z M 1.974,-4.9 H 3.486 A 1.706,1.706 0 0 0 4.652,-5.28 1.285,1.285 0 0 0 5.086,-6.3 1.353,1.353 0 0 0 4.673,-7.363 1.747,1.747 0 0 0 3.481,-7.738 H 1.974 Z m 9.8,0.374 H 8.538 v 2.645 H 12.3 v 0.8 H 7.554 v -7.465 h 4.691 v 0.8 H 8.538 v 2.4 h 3.235 z m 4.047,0.123 A 4.628,4.628 0 0 1 13.977,-5.3 1.709,1.709 0 0 1 13.4,-6.61 a 1.805,1.805 0 0 1 0.7,-1.458 2.8,2.8 0 0 1 1.833,-0.577 3.058,3.058 0 0 1 1.371,0.3 2.255,2.255 0 0 1 0.933,0.82 2.1,2.1 0 0 1 0.331,1.143 h -0.989 a 1.365,1.365 0 0 0 -0.431,-1.068 1.751,1.751 0 0 0 -1.215,-0.388 1.793,1.793 0 0 0 -1.136,0.321 1.071,1.071 0 0 0 -0.408,0.891 0.963,0.963 0 0 0 0.387,0.773 3.8,3.8 0 0 0 1.318,0.578 6.113,6.113 0 0 1 1.456,0.577 2.209,2.209 0 0 1 0.779,0.736 1.878,1.878 0 0 1 0.254,0.989 1.744,1.744 0 0 1 -0.707,1.453 3.016,3.016 0 0 1 -1.892,0.546 3.508,3.508 0 0 1 -1.435,-0.295 2.416,2.416 0 0 1 -1.028,-0.807 1.97,1.97 0 0 1 -0.361,-1.164 h 0.989 a 1.286,1.286 0 0 0 0.5,1.069 2.1,2.1 0 0 0 1.335,0.392 1.935,1.935 0 0 0 1.2,-0.321 1.032,1.032 0 0 0 0.415,-0.866 1.014,1.014 0 0 0 -0.384,-0.848 4.433,4.433 0 0 0 -1.395,-0.595 z m 9.286,-3.332 h -2.4 v 6.659 h -0.979 v -6.665 h -2.394 v -0.8 h 5.772 z m 4.923,4.7 H 26.9 l -0.7,1.953 h -1.015 l 2.85,-7.464 H 28.9 l 2.855,7.464 h -1.01 z m -2.83,-0.8 h 2.538 l -1.272,-3.496 z m 10.824,-4.711 v 5.075 a 2.381,2.381 0 0 1 -0.664,1.728 2.675,2.675 0 0 1 -1.787,0.754 l -0.261,0.01 A 2.794,2.794 0 0 1 33.359,-1.64 2.365,2.365 0 0 1 32.621,-3.46 V -8.546 H 33.6 v 5.055 a 1.707,1.707 0 0 0 0.446,1.259 1.714,1.714 0 0 0 1.271,0.449 1.726,1.726 0 0 0 1.279,-0.446 1.7,1.7 0 0 0 0.443,-1.256 v -5.06 z m 4.391,4.446 h -1.753 v 3.019 h -0.989 v -7.465 h 2.471 a 2.925,2.925 0 0 1 1.94,0.574 2.066,2.066 0 0 1 0.679,1.672 2.009,2.009 0 0 1 -0.377,1.215 2.249,2.249 0 0 1 -1.048,0.774 l 1.753,3.168 v 0.062 h -1.056 z m -1.753,-0.8 h 1.512 a 1.706,1.706 0 0 0 1.166,-0.38 1.285,1.285 0 0 0 0.434,-1.02 1.353,1.353 0 0 0 -0.413,-1.063 1.747,1.747 0 0 0 -1.192,-0.375 h -1.507 z m 9.7,1.871 h -3.126 l -0.7,1.953 h -1.017 l 2.85,-7.464 h 0.861 l 2.855,7.464 h -1.01 z m -2.83,-0.8 H 50.07 L 48.8,-7.331 Z m 11.395,2.747 H 57.938 L 54.18,-6.834 v 5.752 h -0.99 v -7.464 h 0.989 l 3.768,5.778 v -5.778 h 0.979 z m 6.856,-6.659 h -2.4 v 6.659 h -0.979 v -6.659 h -2.393 v -0.8 h 5.772 z"
       transform="translate(96.016,21.061)"
       fill="#6200ee" />
    <path
       id="Caminho_994"
       data-name="Caminho 994"
       d="m 20.869,33.644 a 11.435,11.435 0 0 1 3.926,-2.5 10.4,10.4 0 0 1 5.289,-0.552 L 33,23.585 a 41.012,41.012 0 0 1 3.18,-6.1 13.48,13.48 0 0 1 2.5,-3.05 12.354,12.354 0 0 1 2.823,-1.882 q -0.649,-0.13 -1.233,-0.26 -0.584,-0.13 -1.233,-0.324 a 22.673,22.673 0 0 0 -3.8,-0.649 23.2,23.2 0 0 0 -4.413,0.032 24.515,24.515 0 0 0 -4.673,0.941 19.263,19.263 0 0 0 -4.575,2.077 q -7.463,4.608 -9.6,14.407 a 3.662,3.662 0 0 1 -1.752,2.531 4.2,4.2 0 0 1 -2.726,0.584 3.739,3.739 0 0 1 -2.3,-1.233 3.174,3.174 0 0 1 -0.552,-2.92 23.251,23.251 0 0 1 1.947,-5.484 25.826,25.826 0 0 1 3.083,-4.737 30.627,30.627 0 0 1 3.894,-3.959 33.323,33.323 0 0 1 4.38,-3.147 25.558,25.558 0 0 1 5.094,-2.369 29.642,29.642 0 0 1 5.711,-1.33 34.028,34.028 0 0 1 5.938,-0.26 26.114,26.114 0 0 1 5.646,0.844 42.583,42.583 0 0 0 6.49,1.3 24.178,24.178 0 0 0 4.186,0.13 7.958,7.958 0 0 0 2.269,-0.427 q 0.681,-0.292 0.811,-0.357 a 2.444,2.444 0 0 1 3.31,-0.195 2.61,2.61 0 0 1 0.876,1.72 2.043,2.043 0 0 1 -0.617,1.72 4.917,4.917 0 0 1 -1.233,1.038 9.266,9.266 0 0 1 -3.31,1.168 22.9,22.9 0 0 1 -5.321,0.195 5.506,5.506 0 0 0 -3.7,1.558 18.143,18.143 0 0 0 -3.31,4.088 49.707,49.707 0 0 0 -3.018,5.808 q -1.46,3.277 -2.888,6.717 a 7.057,7.057 0 0 0 3.216,-0.29 7.952,7.952 0 0 0 1.785,-0.876 2.4,2.4 0 0 1 1.817,-0.422 2.291,2.291 0 0 1 1.558,1.006 2.452,2.452 0 0 1 0.422,1.85 2.309,2.309 0 0 1 -1.006,1.59 10.776,10.776 0 0 1 -4.478,1.85 A 13.641,13.641 0 0 1 33,36.3 q -1.363,3.439 -2.888,6.684 a 57.827,57.827 0 0 1 -3.245,6 29.02,29.02 0 0 1 -3.764,4.867 13.642,13.642 0 0 1 -4.51,3.147 15.687,15.687 0 0 1 -3.634,1.233 16.578,16.578 0 0 1 -3.115,0.324 10.761,10.761 0 0 1 -4.316,-0.779 14.778,14.778 0 0 1 -2.758,-1.493 11.524,11.524 0 0 1 -3.829,-5 12.431,12.431 0 0 1 -0.779,-6.425 13.356,13.356 0 0 1 3.212,-7.2 18,18 0 0 1 7.047,-4.858 2.212,2.212 0 0 1 1.85,0.032 2.339,2.339 0 0 1 1.265,3.18 2.144,2.144 0 0 1 -1.3,1.265 13.543,13.543 0 0 0 -5,3.407 8.65,8.65 0 0 0 -2.202,4.836 7.3,7.3 0 0 0 0.422,3.926 6.519,6.519 0 0 0 6.2,4.218 12.932,12.932 0 0 0 5,-1.071 10.312,10.312 0 0 0 3.342,-2.5 25.674,25.674 0 0 0 3.018,-4.056 51.413,51.413 0 0 0 2.726,-5.127 q 1.3,-2.791 2.531,-5.776 a 7.9,7.9 0 0 0 -3.18,0.227 4.967,4.967 0 0 0 -2.083,1.139 2.152,2.152 0 0 1 -1.525,0.681 1.67,1.67 0 0 1 -1.2,-0.519 1.624,1.624 0 0 1 -0.389,-1.3 2.888,2.888 0 0 1 0.973,-1.718 z M 48.417,46.3 a 7,7 0 0 1 -1.4,-1.2 5.338,5.338 0 0 1 -1.071,-1.85 7.435,7.435 0 0 1 -0.357,-2.628 12.616,12.616 0 0 1 0.681,-3.537 25.661,25.661 0 0 1 2.012,-4.543 q 1.3,-2.336 2.531,-4.478 0.909,-1.428 1.817,-3.05 a 7.365,7.365 0 0 0 0.973,-2.271 2.4,2.4 0 0 1 0.7,-1.752 2.262,2.262 0 0 1 1.666,-0.714 2.392,2.392 0 0 1 1.729,0.681 2.519,2.519 0 0 1 0.769,1.72 7.487,7.487 0 0 1 -0.9,3.245 q -0.9,1.817 -2.562,4.673 -0.768,1.363 -1.8,3.147 a 35.935,35.935 0 0 0 -1.781,3.472 12.827,12.827 0 0 0 -0.973,3.083 q -0.227,1.4 0.552,1.85 a 1.229,1.229 0 0 0 0.487,0.065 2.48,2.48 0 0 0 0.941,-0.26 10.109,10.109 0 0 0 1.453,-0.844 18.9,18.9 0 0 0 2.021,-1.622 q 1.153,-1.038 2.247,-2.239 1.094,-1.201 2.048,-2.339 0.941,-1.136 1.655,-2.044 0.714,-0.908 1.1,-1.493 a 2.549,2.549 0 0 1 1.2,-0.973 1.393,1.393 0 0 1 1.071,0.032 1.03,1.03 0 0 1 0.552,0.811 1.855,1.855 0 0 1 -0.487,1.363 16.153,16.153 0 0 0 -1.168,1.882 q -0.844,1.493 -2.142,3.375 -1.298,1.882 -2.914,3.861 A 22.141,22.141 0 0 1 55.69,45.1 9.436,9.436 0 0 1 52.049,46.95 4.568,4.568 0 0 1 48.417,46.3 Z M 62.954,14.76 a 3.05,3.05 0 1 1 -6.1,0 3.05,3.05 0 1 1 6.1,0 z M 78.367,47.207 A 5.128,5.128 0 0 1 74.6,45.65 q -2.661,-2.661 -0.973,-7.2 a 19.52,19.52 0 0 1 1.558,-3.277 q 0.973,-1.655 2.012,-3.342 0.973,-1.558 1.882,-3.147 a 17.761,17.761 0 0 0 1.363,-2.888 q 0.519,-1.3 0.324,-1.72 a 2.126,2.126 0 0 0 -0.324,-0.552 0.923,0.923 0 0 0 -0.195,-0.162 0.906,0.906 0 0 0 -0.389,0.032 7.158,7.158 0 0 0 -2.628,1.493 29.375,29.375 0 0 0 -3.93,3.955 85.685,85.685 0 0 0 -5.159,6.847 q -2.888,4.186 -6.327,10.091 a 2.365,2.365 0 0 1 -1.46,1.168 2.17,2.17 0 0 1 -1.785,-0.26 2.257,2.257 0 0 1 -1.2,-1.4 2.4,2.4 0 0 1 0.162,-1.85 L 69.346,20.081 a 2.145,2.145 0 0 1 1.4,-1.168 2.727,2.727 0 0 1 1.85,0.13 2.5,2.5 0 0 1 1.785,1.882 3.74,3.74 0 0 1 -0.422,2.661 14.01,14.01 0 0 1 5.062,-4.024 4.55,4.55 0 0 1 4.543,0.195 4.659,4.659 0 0 1 1.1,1.071 4.713,4.713 0 0 1 0.779,1.622 6.841,6.841 0 0 1 0.195,2.174 10.739,10.739 0 0 1 -0.584,2.791 19.848,19.848 0 0 1 -1.622,3.472 q -1.038,1.785 -2.142,3.537 -0.519,0.909 -1.233,2.109 -0.714,1.2 -1.3,2.336 a 11.426,11.426 0 0 0 -0.844,2.044 q -0.26,0.909 0.13,1.3 a 0.508,0.508 0 0 0 0.13,0.1 1.273,1.273 0 0 0 0.389,0.032 5.271,5.271 0 0 0 2.3,-0.973 23.485,23.485 0 0 0 3.018,-2.4 42.443,42.443 0 0 0 3.31,-3.439 43.833,43.833 0 0 0 3.18,-4.153 2.835,2.835 0 0 1 1.265,-1.1 1.314,1.314 0 0 1 1.1,-0.032 1,1 0 0 1 0.487,0.844 2.269,2.269 0 0 1 -0.519,1.46 q -0.195,0.324 -0.844,1.493 -0.649,1.169 -1.622,2.726 Q 89.269,38.316 88,40.1 a 27.042,27.042 0 0 1 -2.726,3.277 19.571,19.571 0 0 1 -3.05,2.563 6.686,6.686 0 0 1 -3.212,1.2 2.277,2.277 0 0 1 -0.645,0.067 z M 94.1,47.142 a 6.2,6.2 0 0 1 -2.92,-0.714 q -3.245,-1.817 -3.115,-6.165 a 15.887,15.887 0 0 1 1.265,-5.451 33.794,33.794 0 0 1 3.277,-6.1 34.58,34.58 0 0 1 4.737,-5.451 19.8,19.8 0 0 1 5.062,-3.5 q 5.386,-2.6 9.6,0.195 l 1.817,-3.375 q 0.909,-1.687 1.655,-3.212 0.746,-1.525 1.265,-2.758 a 13.24,13.24 0 0 0 0.714,-2.077 2.3,2.3 0 0 1 1.048,-1.534 2.359,2.359 0 0 1 1.817,-0.357 2.3,2.3 0 0 1 1.525,1.038 2.48,2.48 0 0 1 0.357,1.882 30.509,30.509 0 0 1 -3.115,7.56 q -2.6,4.9 -6.814,12.1 l -0.13,0.26 a 8.488,8.488 0 0 0 -0.519,0.909 q -0.26,0.519 -0.584,1.038 a 23.666,23.666 0 0 0 -2.791,7.4 6.369,6.369 0 0 0 -0.162,2.369 q 0.162,0.811 0.357,0.941 0.324,0.195 1.46,-0.292 a 11.231,11.231 0 0 0 3.018,-2.369 32.4,32.4 0 0 0 3.6,-3.991 q 1.72,-2.239 3.147,-4.121 a 2.071,2.071 0 0 1 1.136,-0.941 1.392,1.392 0 0 1 1.038,0.065 1.12,1.12 0 0 1 0.552,0.779 1.755,1.755 0 0 1 -0.389,1.33 20.182,20.182 0 0 0 -1.33,1.979 q -0.811,1.33 -1.85,2.953 -1.039,1.623 -2.271,3.342 a 31.6,31.6 0 0 1 -2.531,3.115 14.034,14.034 0 0 1 -2.661,2.271 4.918,4.918 0 0 1 -2.661,0.876 5.241,5.241 0 0 1 -2.791,-0.844 5.325,5.325 0 0 1 -1.655,-1.558 6.418,6.418 0 0 1 -1.006,-2.855 25.651,25.651 0 0 1 -4.51,3.732 8.559,8.559 0 0 1 -4.642,1.531 z m 15.51,-22.908 q -0.065,0 -0.195,-0.13 -0.195,-0.13 -0.552,-0.357 a 2.524,2.524 0 0 0 -0.941,-0.324 4.389,4.389 0 0 0 -1.4,0.032 8.314,8.314 0 0 0 -1.979,0.649 16.449,16.449 0 0 0 -4.218,3.05 28.539,28.539 0 0 0 -3.7,4.38 27.838,27.838 0 0 0 -2.628,4.7 11.707,11.707 0 0 0 -1.071,4.088 2.186,2.186 0 0 0 0.195,1.4 q 0.26,0.292 0.389,0.422 0.779,0.454 2.3,-0.389 a 16.136,16.136 0 0 0 3.49,-2.822 49.379,49.379 0 0 0 4.186,-4.965 58.288,58.288 0 0 0 4.38,-6.879 l 0.324,-0.454 z m 16.78,22.973 a 8.277,8.277 0 0 1 -5.711,-1.752 7.254,7.254 0 0 1 -2.239,-3.764 11.657,11.657 0 0 1 -0.1,-4.51 19.247,19.247 0 0 1 1.428,-4.7 28.027,28.027 0 0 1 2.4,-4.348 28.988,28.988 0 0 1 3.732,-4.575 21.829,21.829 0 0 1 4.381,-3.439 11.993,11.993 0 0 1 4.51,-1.622 6.555,6.555 0 0 1 4.186,0.811 5.691,5.691 0 0 1 2.4,2.5 6.051,6.051 0 0 1 0.519,3.537 8.7,8.7 0 0 1 -0.844,3.05 13.577,13.577 0 0 1 -1.785,2.791 11.931,11.931 0 0 1 -2.5,2.271 11.742,11.742 0 0 1 -3.05,1.493 16.834,16.834 0 0 1 -1.717,0.35 8.971,8.971 0 0 1 -2.174,0.065 8.832,8.832 0 0 1 -2.434,-0.584 11.965,11.965 0 0 1 -2.628,-1.46 19.6,19.6 0 0 0 -1.071,2.563 11.949,11.949 0 0 0 -0.552,2.369 6.381,6.381 0 0 0 0.065,2.044 2.939,2.939 0 0 0 0.779,1.525 4.394,4.394 0 0 0 3.829,1.071 15.247,15.247 0 0 0 5.321,-1.817 31.725,31.725 0 0 0 5.776,-4.056 36.148,36.148 0 0 0 5.257,-5.646 2.619,2.619 0 0 1 1.265,-1.071 1.379,1.379 0 0 1 1.1,0 1,1 0 0 1 0.487,0.844 2.164,2.164 0 0 1 -0.584,1.46 53.708,53.708 0 0 1 -9.572,10.351 q -4.77,3.8 -8.923,4.186 a 4.729,4.729 0 0 1 -0.779,0.065 z m 1.038,-18.041 a 4.862,4.862 0 0 0 4.8,1.1 6.442,6.442 0 0 0 2.726,-1.59 10.223,10.223 0 0 0 1.85,-2.369 5.918,5.918 0 0 0 0.779,-2.271 1.363,1.363 0 0 0 -0.552,-1.428 2.066,2.066 0 0 0 -1.72,-0.065 9.622,9.622 0 0 0 -2.5,1.2 17.893,17.893 0 0 0 -2.791,2.271 19.524,19.524 0 0 0 -2.592,3.152 z m 17.36,2.206 q 0.909,-1.428 1.817,-3.115 0.908,-1.687 1.687,-3.439 a 36.1,36.1 0 0 0 1.33,-3.439 18.725,18.725 0 0 0 0.746,-2.985 3.142,3.142 0 0 1 0.973,-1.979 2.1,2.1 0 0 1 1.559,-0.615 1.529,1.529 0 0 1 1.233,0.909 3.547,3.547 0 0 1 0,2.531 11.159,11.159 0 0 1 2.985,0.552 4.818,4.818 0 0 1 2.466,1.85 5.751,5.751 0 0 1 0.779,4.056 15.49,15.49 0 0 1 -2.206,5.549 q -1.947,3.245 -3.018,5.159 a 16.451,16.451 0 0 0 -1.525,3.537 8.228,8.228 0 0 0 -0.357,1.655 q -0.032,0.552 0.1,0.681 a 3.483,3.483 0 0 0 0.909,-0.292 8.236,8.236 0 0 0 1.979,-1.4 30.037,30.037 0 0 0 3.083,-3.277 53.436,53.436 0 0 0 4.153,-5.938 3.065,3.065 0 0 1 1.233,-1.2 1.428,1.428 0 0 1 1.136,-0.1 0.936,0.936 0 0 1 0.584,0.779 2.263,2.263 0 0 1 -0.487,1.493 q -1.038,1.687 -2.531,4.218 -1.493,2.531 -3.18,4.867 a 28.392,28.392 0 0 1 -3.472,4.024 5.134,5.134 0 0 1 -3.407,1.687 4.436,4.436 0 0 1 -3.18,-1.168 5.037,5.037 0 0 1 -1.752,-2.823 7.965,7.965 0 0 1 0.26,-3.7 25.8,25.8 0 0 1 1.947,-4.77 q 1.363,-2.661 3.31,-5.97 a 10.5,10.5 0 0 0 1.493,-3.245 q 0.13,-0.973 0.13,-1.038 a 2.353,2.353 0 0 0 -0.876,-0.292 9.257,9.257 0 0 0 -2.823,0.162 q -0.649,1.233 -1.363,2.531 -0.714,1.298 -1.363,2.434 -0.649,1.136 -1.2,2.044 a 11.628,11.628 0 0 1 -0.876,1.3 2.49,2.49 0 0 1 -1.168,0.941 1.5,1.5 0 0 1 -1.1,0.032 0.854,0.854 0 0 1 -0.519,-0.746 2.429,2.429 0 0 1 0.511,-1.459 z"
       transform="translate(96.955,16.09)"
       fill="#6200ee" />
  </g>
</svg>
